<svg width="200" height="200" viewBox="0 0 200 200" fill="none" xmlns="http://www.w3.org/2000/svg">
<rect x="1.5" y="1.5" width="197" height="197" rx="48.5" stroke="white" stroke-width="3"/>
<path d="M107.277 31C101.791 31 97.3292 35.4621 97.3292 40.9478V75.535H96.8269C95.2149 75.535 93.9067 76.8433 93.9067 78.4552V87.8204C90.0023 89.2032 86.9302 92.5337 86.0279 96.7388C82.3936 113.719 77.7227 125.75 73.2154 129.748C72.3086 130.552 71.9918 131.836 72.4225 132.969C72.8532 134.103 73.9396 134.854 75.1529 134.854H123.183C123.185 134.854 123.188 134.854 123.189 134.854C123.191 134.854 123.192 134.854 123.194 134.854H139.4C140.613 134.854 141.699 134.103 142.13 132.97C142.561 131.836 142.244 130.554 141.337 129.749C136.831 125.753 132.162 113.721 128.525 96.7403C127.625 92.5351 124.552 89.2032 120.646 87.8219V78.4582C120.646 76.8462 119.338 75.5379 117.726 75.5379H117.223V40.9478C117.225 35.4621 112.763 31 107.277 31ZM99.7486 81.374H100.251H114.304H114.807V87.1239H99.7486V81.374ZM103.171 40.9478C103.171 38.6831 105.014 36.8405 107.278 36.8405C109.543 36.8405 111.386 38.6831 111.386 40.9478V75.535H103.173L103.171 40.9478ZM122.813 97.958C125.031 108.309 128.516 121.061 133.379 129.01H124.858C123.621 126.8 121.831 123.111 121.593 120.418C121.45 118.813 120.063 117.632 118.426 117.767C116.819 117.91 115.633 119.328 115.776 120.934C116.016 123.636 117.155 126.622 118.285 129.01H110.199V121.589C110.199 119.977 108.89 118.668 107.278 118.668C105.666 118.668 104.358 119.977 104.358 121.589V129.01H96.2735C97.4022 126.62 98.5425 123.634 98.7805 120.933C98.9236 119.325 97.7351 117.909 96.129 117.767C94.5287 117.632 93.1065 118.814 92.9634 120.419C92.7254 123.1 90.9339 126.795 89.6971 129.01H81.1788C86.0439 121.061 89.5292 108.309 91.7442 97.9595C92.3633 95.0655 94.9667 92.9644 97.9322 92.9644H116.625C119.592 92.9644 122.193 95.0641 122.813 97.958Z" fill="white"/>
<path d="M73.6336 118.588C67.6515 120.68 63.6318 126.344 63.6318 132.684C63.6318 140.916 70.3279 147.612 78.5601 147.612C81.1635 147.612 83.6544 146.945 85.8577 145.705C88.4845 150.292 93.427 153.24 98.8221 153.24C104.292 153.24 109.071 150.274 111.67 145.875C113.188 146.421 114.784 146.7 116.411 146.7C120.876 146.7 125.111 144.543 127.744 140.934C128.693 139.63 128.407 137.803 127.105 136.854C125.802 135.905 123.974 136.19 123.025 137.494C121.487 139.602 119.016 140.861 116.412 140.861C115.453 140.861 114.514 140.697 113.626 140.374C113.615 140.372 113.604 140.37 113.594 140.366C113.688 139.694 113.752 139.011 113.752 138.313C113.752 136.701 112.444 135.393 110.832 135.393C109.22 135.393 107.911 136.701 107.911 138.313C107.911 143.324 103.835 147.401 98.8236 147.401C95.0287 147.401 91.6004 145.009 90.2906 141.451C90.2279 141.278 90.1446 141.118 90.0556 140.966C90.0249 140.249 89.7402 139.539 89.1868 138.998C88.0348 137.872 86.1877 137.889 85.0561 139.041C83.3317 140.802 81.0247 141.773 78.5615 141.773C73.5504 141.773 69.4738 137.697 69.4738 132.686C69.4738 128.825 71.9209 125.376 75.5624 124.103C77.0854 123.571 77.8884 121.905 77.3555 120.383C76.8225 118.86 75.1609 118.058 73.6336 118.588Z" fill="white"/>
<path d="M53.2248 129.68C58.7601 129.68 63.2631 125.177 63.2631 119.642C63.2631 114.107 58.7601 109.604 53.2248 109.604C47.6895 109.604 43.1865 114.107 43.1865 119.642C43.1865 125.177 47.6895 129.68 53.2248 129.68ZM53.2248 115.444C55.5391 115.444 57.4227 117.328 57.4227 119.642C57.4227 121.956 55.5391 123.84 53.2248 123.84C50.9105 123.84 49.027 121.956 49.027 119.642C49.027 117.328 50.9105 115.444 53.2248 115.444Z" fill="white"/>
<path d="M52.0002 155.76C56.9616 155.76 60.9989 151.722 60.9989 146.759C60.9989 141.797 56.9616 137.759 52.0002 137.759C47.0387 137.759 43 141.797 43 146.759C43 151.722 47.0372 155.76 52.0002 155.76ZM52.0002 143.6C53.7406 143.6 55.1584 145.018 55.1584 146.759C55.1584 148.501 53.7406 149.919 52.0002 149.919C50.2582 149.919 48.8405 148.501 48.8405 146.759C48.8405 145.018 50.2568 143.6 52.0002 143.6Z" fill="white"/>
<path d="M132.74 149.38C132.74 155.787 137.953 161 144.361 161C150.768 161 155.981 155.787 155.981 149.38C155.981 142.973 150.768 137.761 144.361 137.761C137.954 137.759 132.74 142.973 132.74 149.38ZM150.14 149.38C150.14 152.568 147.549 155.159 144.361 155.159C141.174 155.159 138.581 152.566 138.581 149.38C138.581 146.194 141.174 143.601 144.361 143.601C147.549 143.601 150.14 146.193 150.14 149.38Z" fill="white"/>
<path d="M148.89 103.537C144.783 103.537 141.44 106.879 141.44 110.987C141.44 115.094 144.781 118.438 148.89 118.438C152.999 118.438 156.341 115.095 156.341 110.987C156.341 106.878 152.997 103.537 148.89 103.537ZM148.89 112.597C148.004 112.597 147.281 111.874 147.281 110.987C147.281 110.099 148.002 109.378 148.89 109.378C149.778 109.378 150.5 110.099 150.5 110.987C150.5 111.874 149.778 112.597 148.89 112.597Z" fill="white"/>
<path d="M150.412 128.362C150.952 127.822 151.258 127.077 151.258 126.303C151.258 126.113 151.242 125.924 151.2 125.734C151.169 125.544 151.111 125.369 151.039 125.179C150.966 125.004 150.879 124.843 150.763 124.683C150.661 124.522 150.544 124.376 150.413 124.244C150.266 124.098 150.121 123.982 149.959 123.879C149.8 123.777 149.638 123.675 149.462 123.602C149.287 123.529 149.097 123.485 148.908 123.441C148.543 123.368 148.148 123.368 147.769 123.441C147.579 123.485 147.404 123.529 147.229 123.602C147.055 123.675 146.88 123.777 146.717 123.879C146.555 123.982 146.411 124.098 146.279 124.244C146.148 124.376 146.017 124.522 145.914 124.683C145.812 124.843 145.725 125.004 145.652 125.179C145.577 125.369 145.519 125.544 145.476 125.734C145.446 125.924 145.418 126.113 145.418 126.303C145.418 127.077 145.739 127.822 146.279 128.362C146.82 128.917 147.579 129.223 148.338 129.223C149.111 129.223 149.857 128.917 150.412 128.362Z" fill="white"/>
</svg>
