<svg width="18" height="18" viewBox="0 0 18 18" fill="none" xmlns="http://www.w3.org/2000/svg">
<path d="M18 9.05575C18 4.05301 13.9686 0 9 0C4.02806 0 0 4.05301 0 9.05575C0 13.5746 3.29006 17.3214 7.59375 18V11.674H5.30831V9.05632H7.59375V7.06009C7.59375 4.79106 8.93531 3.53797 10.9918 3.53797C11.9768 3.53797 13.0078 3.71456 13.0078 3.71456V5.94284H11.871C10.755 5.94284 10.4062 6.64183 10.4062 7.3578V9.05575H12.9021L12.501 11.6734H10.4062V17.9994C14.7066 17.3208 18 13.574 18 9.05518V9.05575Z" fill="white"/>
</svg>
