<svg width="18" height="18" viewBox="0 0 18 18" fill="none" xmlns="http://www.w3.org/2000/svg">
<path d="M9 0C6.55338 0 6.24847 0.011814 5.29097 0.052319C4.32954 0.099575 3.67921 0.248656 3.10539 0.471434C2.51356 0.703213 2.0095 1.01094 1.51163 1.51163C1.01038 2.0095 0.699838 2.51356 0.471434 3.10539C0.248656 3.67921 0.099575 4.32954 0.052319 5.29097C0.00900113 6.24903 0 6.55338 0 9C0 11.4466 0.011814 11.7515 0.052319 12.709C0.099575 13.6676 0.248656 14.3208 0.471434 14.8946C0.703213 15.4864 1.01094 15.9905 1.51163 16.4884C2.0095 16.9896 2.51356 17.3002 3.10539 17.5286C3.67921 17.7485 4.33235 17.9004 5.29097 17.9477C6.24903 17.991 6.55338 18 9 18C11.4466 18 11.7515 17.9882 12.709 17.9477C13.6676 17.9004 14.3208 17.748 14.8946 17.5286C15.4864 17.2968 15.9905 16.9891 16.4884 16.4884C16.9896 15.9905 17.3002 15.4892 17.5286 14.8946C17.7485 14.3208 17.9004 13.6676 17.9477 12.709C17.991 11.751 18 11.4466 18 9C18 6.55338 17.9882 6.24847 17.9477 5.29097C17.9004 4.33235 17.748 3.67583 17.5286 3.10539C17.2968 2.51356 16.9891 2.0095 16.4884 1.51163C15.9905 1.01038 15.4892 0.699838 14.8946 0.471434C14.3208 0.248656 13.6676 0.099575 12.709 0.052319C11.751 0.00900113 11.4466 0 9 0ZM9 1.6202C11.4027 1.6202 11.6896 1.63202 12.6393 1.67252C13.5152 1.71359 13.9922 1.85986 14.309 1.98362C14.7315 2.14733 15.0268 2.34086 15.3464 2.65702C15.6597 2.97037 15.8532 3.2691 16.0169 3.69159C16.1407 4.00831 16.287 4.48537 16.328 5.3613C16.3685 6.31091 16.3804 6.59839 16.3804 9.00056C16.3804 11.4027 16.3685 11.6902 16.3247 12.6398C16.2774 13.5158 16.1311 13.9928 16.0079 14.3095C15.8375 14.732 15.6473 15.0274 15.3334 15.3469C15.0167 15.6603 14.7152 15.8538 14.296 16.0175C13.9832 16.1413 13.4994 16.2875 12.6201 16.3286C11.6655 16.3691 11.3842 16.3809 8.97525 16.3809C6.56632 16.3809 6.2856 16.3691 5.32979 16.3252C4.45387 16.278 3.97062 16.1317 3.65389 16.0085C3.22634 15.838 2.93324 15.6479 2.61933 15.334C2.3026 15.0173 2.1012 14.7157 1.94593 14.2966C1.81991 13.9838 1.6759 13.5 1.6292 12.6207C1.59714 11.6773 1.58195 11.3847 1.58195 8.98706C1.58195 6.59051 1.59714 6.29741 1.6292 5.34217C1.6759 4.46287 1.81991 3.98019 1.94593 3.66627C2.1012 3.23815 2.30316 2.94562 2.61933 2.62889C2.93268 2.31554 3.22634 2.11301 3.65389 1.95437C3.97062 1.83117 4.44206 1.6849 5.32135 1.64102C6.27603 1.6067 6.55732 1.59432 8.96287 1.59432L9 1.6202ZM9 4.38074C6.44537 4.38074 4.37961 6.44931 4.37961 9.00113C4.37961 11.5558 6.44818 13.6215 9 13.6215C11.5546 13.6215 13.6204 11.5529 13.6204 9.00113C13.6204 6.44649 11.5518 4.38074 9 4.38074ZM9 12.0013C7.34154 12.0013 5.99981 10.6596 5.99981 9.00113C5.99981 7.34267 7.34154 6.00094 9 6.00094C10.6585 6.00094 12.0002 7.34267 12.0002 9.00113C12.0002 10.6596 10.6585 12.0013 9 12.0013ZM14.8867 4.19621C14.8867 4.79422 14.4001 5.27691 13.8049 5.27691C13.2069 5.27691 12.7242 4.79366 12.7242 4.19621C12.7242 3.60158 13.2103 3.11776 13.8049 3.11776C14.3996 3.11776 14.8867 3.60158 14.8867 4.19621Z" fill="white"/>
</svg>
