<svg width="18" height="18" viewBox="0 0 18 18" fill="none" xmlns="http://www.w3.org/2000/svg">
<path d="M15.3337 15.3395H12.6714V11.1619C12.6714 10.1657 12.6506 8.88553 11.2793 8.88553C9.891 8.88553 9.6795 9.96606 9.6795 11.0882V15.3389H7.01381V6.74923H9.57431V7.92088H9.60863C9.96638 7.24421 10.8366 6.53267 12.1348 6.53267C14.8354 6.53267 15.3366 8.31068 15.3366 10.6225V15.3389L15.3337 15.3395ZM4.00219 5.57533C3.14325 5.57533 2.45475 4.88066 2.45475 4.02512C2.45475 3.1724 3.14606 2.47886 4.00219 2.47886C4.85831 2.47886 5.55188 3.1724 5.55188 4.02512C5.55188 4.88066 4.85831 5.57533 4.00219 5.57533ZM5.33756 15.3395H2.66625V6.74979H5.33756V15.3395ZM16.6702 0H1.3275C0.594562 0 0 0.579919 0 1.29765V16.7024C0 17.4201 0.594562 18 1.3275 18H16.6674C17.3993 18 18 17.4201 18 16.7024V1.29765C18 0.579919 17.3993 0 16.6674 0L16.6702 0Z" fill="white"/>
</svg>
