<svg width="51" height="50" viewBox="0 0 51 50" fill="none" xmlns="http://www.w3.org/2000/svg">
<path d="M27.7023 0.625548C27.1326 0.218702 26.45 0 25.7499 0C25.0498 0 24.3672 0.218702 23.7975 0.625548L0.557617 17.2255V50H50.9422V17.2255L27.7023 0.625548ZM47.5832 40.2058L34.564 31.8364L47.5832 21.7103V40.2058ZM25.7499 3.3588L46.5786 18.2367L31.5687 29.9107L25.7499 26.1701L19.9311 29.9107L4.92123 18.2367L25.7499 3.3588ZM3.91659 21.7103L16.9357 31.8364L3.91659 40.2058V21.7103ZM47.5832 46.641H3.91659V44.199L25.7499 30.1633L47.5832 44.199V46.641Z" fill="#779220"/>
</svg>
