<svg width="200" height="200" viewBox="0 0 200 200" fill="none" xmlns="http://www.w3.org/2000/svg">
<rect x="1.5" y="1.5" width="197" height="197" rx="48.5" stroke="white" stroke-width="3"/>
<path d="M59.5933 100.687C53.3867 100.687 48.32 102.333 45.5333 105.12C43.8867 106.767 43 108.667 43 110.82V110.947V121.587V121.713V122.347V132.353C43 138.307 49.84 142.487 59.5933 142.487C69.3467 142.487 76.1867 138.307 76.1867 132.353V122.347V121.713V121.587V110.947C76.1867 110.947 76.1867 110.947 76.1867 110.82C76.1867 108.667 75.3 106.767 73.6533 105.12C70.8667 102.333 65.8 100.687 59.5933 100.687ZM71.6267 132.227C71.6267 135.267 66.3067 137.673 59.5933 137.673C52.88 137.673 47.56 135.267 47.56 132.227V128.807C50.4733 130.58 54.6533 131.593 59.5933 131.593C64.5333 131.593 68.5867 130.58 71.6267 128.807V132.227ZM71.6267 121.46C71.6267 124.5 66.3067 126.907 59.5933 126.907C52.88 126.907 47.56 124.5 47.56 121.46V118.04C50.4733 119.813 54.6533 120.827 59.5933 120.827C64.5333 120.827 68.5867 119.813 71.6267 118.04V121.46ZM71.6267 110.82C71.6267 110.947 71.6267 111.2 71.6267 111.327V111.453V111.58C71.6267 111.58 71.6267 111.58 71.6267 111.707C71.6267 111.833 71.5 112.087 71.3733 112.213C71.3733 112.34 71.2467 112.34 71.2467 112.467C71.12 112.593 70.9933 112.72 70.9933 112.847C70.8667 112.973 70.74 113.1 70.6133 113.227C70.4867 113.353 70.4867 113.353 70.36 113.48C70.2333 113.607 70.1067 113.733 69.8533 113.86C67.7 115.38 64.0267 116.393 59.72 116.393C53.5133 116.393 48.4467 114.24 47.8133 111.58V111.453C47.8133 111.327 47.8133 111.073 47.8133 110.947C47.8133 107.907 53.1333 105.5 59.8467 105.5C66.3067 105.373 71.6267 107.78 71.6267 110.82Z" fill="white"/>
<path d="M100.001 79.28C93.7939 79.28 88.7272 80.9266 85.9406 83.7133C84.2939 85.36 83.4072 87.26 83.4072 89.4133V89.54V100.18V100.813V110.82C83.4072 110.82 83.4072 110.82 83.4072 110.947V121.587V121.713V132.353C83.4072 138.307 90.2472 142.487 100.001 142.487C109.754 142.487 116.594 138.307 116.594 132.353V121.713V121.587V110.947C116.594 110.947 116.594 110.947 116.594 110.82V100.813V100.18V100.053V89.4133C116.594 89.4133 116.594 89.4133 116.594 89.2866C116.594 87.1333 115.707 85.2333 114.061 83.5866C111.274 80.9266 106.207 79.28 100.001 79.28ZM112.034 132.227C112.034 135.267 106.714 137.673 100.001 137.673C93.2872 137.673 87.9672 135.267 87.9672 132.227V128.807C90.8806 130.58 95.0606 131.593 100.001 131.593C104.941 131.593 108.994 130.58 112.034 128.807V132.227ZM112.034 121.46C112.034 124.5 106.714 126.907 100.001 126.907C93.2872 126.907 87.9672 124.5 87.9672 121.46V118.04C90.8806 119.813 95.0606 120.827 100.001 120.827C104.941 120.827 108.994 119.813 112.034 118.04V121.46ZM112.034 110.82C112.034 113.86 106.714 116.267 100.001 116.267C93.2872 116.267 87.9672 113.86 87.9672 110.82V107.4C90.8806 109.173 95.0606 110.187 100.001 110.187C104.941 110.187 108.994 109.173 112.034 107.4V110.82ZM112.034 100.053C112.034 103.093 106.714 105.5 100.001 105.5C93.2872 105.5 87.9672 103.093 87.9672 100.053V96.6333C90.8806 98.4066 95.0606 99.42 100.001 99.42C104.941 99.42 108.994 98.4066 112.034 96.6333V100.053ZM112.034 89.4133C112.034 89.54 112.034 89.7933 112.034 89.92V90.0466V90.1733C112.034 90.1733 112.034 90.1733 112.034 90.3C112.034 90.4266 111.907 90.68 111.781 90.8066C111.781 90.9333 111.654 90.9333 111.654 91.06C111.527 91.1866 111.401 91.3133 111.401 91.44C111.274 91.5666 111.147 91.6933 111.021 91.82C110.894 91.9466 110.894 91.9466 110.767 92.0733C110.641 92.2 110.514 92.3266 110.261 92.4533C108.107 93.9733 104.434 94.9866 100.127 94.9866C93.9206 94.9866 88.8539 92.8333 88.2206 90.1733V90.0466C88.2206 89.92 88.2206 89.6666 88.2206 89.54C88.2206 86.5 93.5406 84.0933 100.254 84.0933C106.587 83.9666 112.034 86.3733 112.034 89.4133Z" fill="white"/>
<path d="M157 68.1333C157 65.98 156.113 64.08 154.467 62.4333C151.68 59.6467 146.613 58 140.407 58C134.2 58 129.133 59.6467 126.347 62.4333C124.7 63.9533 123.813 65.98 123.813 68.1333V78.6467V78.7733V79.5333V89.4133V100.053V100.18V110.82C123.813 110.82 123.813 110.82 123.813 110.947V121.587V121.713V132.353C123.813 138.307 130.653 142.487 140.407 142.487C150.16 142.487 157 138.307 157 132.353V121.713V121.587V110.947C157 110.947 157 110.947 157 110.82V100.18V100.053V89.4133V79.5333V78.7733V78.6467V68.1333ZM152.313 132.227C152.313 135.267 146.993 137.673 140.28 137.673C133.567 137.673 128.247 135.267 128.247 132.227V128.807C131.16 130.58 135.34 131.593 140.28 131.593C145.22 131.593 149.273 130.58 152.313 128.807V132.227ZM152.313 121.46C152.313 124.5 146.993 126.907 140.28 126.907C133.567 126.907 128.247 124.5 128.247 121.46V118.04C131.16 119.813 135.34 120.827 140.28 120.827C145.22 120.827 149.273 119.813 152.313 118.04V121.46ZM152.313 110.82C152.313 113.86 146.993 116.267 140.28 116.267C133.567 116.267 128.247 113.86 128.247 110.82V107.4C131.16 109.173 135.34 110.187 140.28 110.187C145.22 110.187 149.273 109.173 152.313 107.4V110.82ZM152.313 100.053C152.313 103.093 146.993 105.5 140.28 105.5C133.567 105.5 128.247 103.093 128.247 100.053V96.6333C131.16 98.4067 135.34 99.42 140.28 99.42C145.22 99.42 149.273 98.4067 152.313 96.6333V100.053ZM152.313 89.4133C152.313 92.4533 146.993 94.86 140.28 94.86C133.567 94.86 128.247 92.4533 128.247 89.4133V85.9933C131.16 87.7667 135.34 88.78 140.28 88.78C145.22 88.78 149.273 87.7667 152.313 85.9933V89.4133ZM152.313 78.7733C152.313 81.8133 146.993 84.22 140.28 84.22C133.567 84.22 128.247 81.8133 128.247 78.7733V75.48C131.16 77.2533 135.34 78.2667 140.28 78.2667C145.22 78.2667 149.273 77.2533 152.313 75.48V78.7733ZM152.313 68.1333C152.313 68.26 152.313 68.5133 152.313 68.64V68.7667V68.8933C152.313 68.8933 152.313 68.8933 152.313 69.02C152.313 69.1467 152.187 69.4 152.06 69.5267C152.06 69.6533 151.933 69.6533 151.933 69.78C151.807 69.9067 151.68 70.0333 151.68 70.16C151.553 70.2867 151.427 70.4133 151.3 70.54C151.173 70.6667 151.173 70.6667 151.047 70.7933C150.92 70.92 150.793 71.0467 150.54 71.1733C148.387 72.6933 144.713 73.7067 140.407 73.7067C134.2 73.7067 129.133 71.5533 128.5 68.8933V68.7667C128.5 68.64 128.5 68.3867 128.5 68.26C128.5 65.22 133.82 62.8133 140.533 62.8133C146.993 62.6867 152.313 65.0933 152.313 68.1333Z" fill="white"/>
</svg>
