<svg width="200" height="200" viewBox="0 0 200 200" fill="none" xmlns="http://www.w3.org/2000/svg">
<rect x="1.5" y="1.5" width="197" height="197" rx="48.5" stroke="white" stroke-width="3"/>
<path d="M101.367 76.8299C101.367 76.8299 98.1035 73.4916 92.8775 74.737C86.9197 76.1565 81.2253 84.7778 67.8011 79.259M104.338 92.3471C104.338 92.3471 115.405 99.1538 120.382 103.78C125.359 108.406 142.786 122.363 135.708 128.461C129.882 133.482 114.775 114.803 114.775 114.803M106.68 123.513C106.68 123.513 126.719 145.617 130.906 128.637M102.185 132.09C102.185 132.09 114.672 144.857 119.123 135.079M68.1798 122.517C68.1798 122.517 61.8256 113.132 54.4909 109.794M109.65 139.033C109.65 139.033 107.47 145.121 97.6909 140.67M136.688 122.416L153.056 109.798M85.6431 139.908C85.6431 139.908 86.858 143.471 92.9779 143.247C96.5794 143.116 98.5858 132.223 93.6963 129.997M61.9149 115.534C61.9149 115.534 56.3082 126.557 68.3116 126.118M135.022 76.801C135.022 76.801 133.954 80.4464 125.551 80.7537C117.148 81.0609 108.481 74.1652 102.611 77.9861C96.741 81.8071 86.1998 89.404 86.1998 89.404L81.8372 101.583C81.8372 101.583 90.6353 112.08 98.4239 94.9667C101.98 93.6349 109.052 89.77 109.052 89.77M70.8432 129.631C67.6707 126.683 68.1358 121.316 74.0058 117.496C79.8758 113.675 86.053 118.257 81.4709 124.435C76.8888 130.612 74.5764 133.101 70.8432 129.631ZM79.5532 137.727C75.9964 135.257 76.8458 129.412 82.7158 125.592C88.5858 121.771 95.8754 123.908 91.3371 131.287C87.3078 137.838 84.4865 141.153 79.5532 137.727ZM53.6585 70.616C55.8314 71.6148 64.2142 75.4701 64.2142 75.4701L48.4003 109.838L37.3359 104.747L53.1499 70.3814C53.1499 70.3814 53.3356 70.4666 53.6585 70.616ZM149.709 67.1039C147.615 68.2587 139.536 72.7159 139.536 72.7159L157.817 105.837L168.48 99.9514L150.199 66.8328C150.199 66.8328 150.02 66.9313 149.709 67.1039Z" stroke="white" stroke-width="2" stroke-linecap="round" stroke-linejoin="round"/>
</svg>
