<svg width="54" height="50" viewBox="0 0 54 50" fill="none" xmlns="http://www.w3.org/2000/svg">
<path fill-rule="evenodd" clip-rule="evenodd" d="M18.6667 15.9284C19.5247 15.2334 20.3458 14.5455 20.961 13.9479C23.1321 11.8376 16.0208 -0.471888 12.5618 0.0139998C11.9736 0.0960327 11.1498 0.316891 10.2594 0.614373C10.0984 0.668461 9.98693 0.794665 9.95275 0.960534C9.91948 1.1273 9.97254 1.28686 10.1002 1.39864C11.8405 2.93834 13.5943 5.02342 15.027 7.58357C16.3212 9.89852 17.3671 12.6065 17.9229 15.6534C17.9535 15.8175 18.0596 15.9446 18.2161 16.0032C18.3735 16.0618 18.5363 16.0339 18.6667 15.9284ZM36.7989 32.4882C37.4104 31.5669 38.0166 30.6835 38.5526 30.0146C40.4476 27.6519 53.3364 33.6069 53.1745 37.1037C53.1476 37.6978 53.0046 38.5406 52.7914 39.4574C52.7536 39.6224 52.6385 39.7459 52.4757 39.7946C52.3138 39.8441 52.1502 39.8054 52.0269 39.6891C50.337 38.0953 48.103 36.5385 45.4256 35.3459C43.0072 34.2695 40.2201 33.4762 37.1415 33.204C36.9751 33.1896 36.8393 33.0949 36.7665 32.9444C36.6945 32.7929 36.7062 32.6271 36.7989 32.4882ZM0.90332 13.2943C1.24418 21.5526 6.55045 30.5988 13.9136 37.6437C21.7974 45.188 32.0385 50.4381 41.0637 49.9712C45.1567 49.5051 48.9142 47.0252 50.7822 44.7968C51.1546 44.3523 51.571 43.4347 51.9505 42.3592C52.009 42.1943 51.9739 42.0221 51.8552 41.8932C50.2372 40.1236 47.7702 38.2567 44.6422 36.8639C42.0296 35.701 38.9663 34.8888 35.5604 34.7626C35.3967 34.7572 35.2528 34.8293 35.1611 34.9654C34.644 35.7326 34.1718 36.3961 33.7941 36.8197C33.1402 37.5517 32.7931 38.2657 31.319 37.9267C26.0523 35.8182 16.4867 26.928 13.7724 21.9024C13.2993 20.4627 13.9756 20.049 14.6421 19.3296C15.0279 18.9131 15.643 18.3804 16.3571 17.7926C16.484 17.6889 16.5433 17.5384 16.5217 17.3752C16.081 13.9884 14.9892 11.0055 13.5916 8.50756C11.9179 5.51381 9.83493 3.225 7.92648 1.77455C7.78708 1.66908 7.6135 1.65015 7.45431 1.72317C6.42094 2.20184 5.54855 2.70216 5.14204 3.11593C3.10137 5.18568 0.986961 9.16743 0.90332 13.2943Z" fill="#779220"/>
</svg>
