<svg width="200" height="200" viewBox="0 0 200 200" fill="none" xmlns="http://www.w3.org/2000/svg">
<rect x="1.5" y="1.5" width="197" height="197" rx="48.5" stroke="white" stroke-width="3"/>
<path fill-rule="evenodd" clip-rule="evenodd" d="M115.208 39.4104C114.316 39.4104 113.595 38.6878 113.595 37.7944C113.595 36.901 114.316 36.1783 115.208 36.1783C116.1 36.1783 116.827 36.901 116.827 37.7944C116.827 38.6878 116.1 39.4104 115.208 39.4104ZM110.272 39.4104C109.38 39.4104 108.659 38.6878 108.659 37.7944C108.659 36.901 109.38 36.1783 110.272 36.1783C111.164 36.1783 111.885 36.901 111.885 37.7944C111.885 38.6878 111.164 39.4104 110.272 39.4104ZM108.659 42.3011C108.659 41.4077 109.38 40.6851 110.272 40.6851C111.164 40.6851 111.891 41.4077 111.891 42.3011V47.3655C111.891 48.2531 111.164 48.9815 110.272 48.9815H100.247C99.3774 48.9531 98.6845 48.2361 98.6845 47.3598C98.6845 46.4892 99.3775 45.7723 100.247 45.7437H108.659L108.659 42.3011ZM113.595 42.3011C113.584 41.863 113.743 41.4419 114.049 41.1289C114.356 40.8103 114.771 40.6339 115.208 40.6339C115.646 40.6339 116.066 40.8103 116.367 41.1289C116.674 41.4419 116.838 41.863 116.821 42.3011V45.7381H125.24C125.677 45.7267 126.103 45.8917 126.415 46.1933C126.728 46.5005 126.904 46.9159 126.904 47.3541C126.904 47.7922 126.728 48.2133 126.415 48.5149C126.103 48.8222 125.677 48.9872 125.24 48.9701H115.208C114.782 48.9758 114.373 48.8051 114.067 48.4978C113.766 48.1962 113.595 47.7865 113.595 47.3541V42.2954L113.595 42.3011ZM65.8189 143.195V143.201C65.1884 142.569 65.1884 141.545 65.8189 140.913C66.4494 140.282 67.4719 140.282 68.1024 140.913L70.9595 143.781L78.0997 136.634V136.629C78.7302 135.997 79.7526 135.997 80.3831 136.629C81.0136 137.26 81.008 138.285 80.3774 138.916L72.3057 147.008C71.6412 147.673 70.5903 147.753 69.8405 147.19C69.761 147.133 69.6928 147.076 69.6247 147.008L65.8189 143.195ZM80.4564 64.5507L87.0626 63.3843L88.5451 56.8348V56.8405C84.194 56.7551 80.587 60.1977 80.4564 64.5507ZM90.1015 64.528L93.6743 70.7303V70.736C94.3048 70.167 94.8445 69.5069 95.2706 68.7728C96.3101 66.969 96.5997 64.8239 96.0772 62.8094C96.0601 62.7582 96.0488 62.707 96.0374 62.6557C95.4921 60.6812 94.2027 58.9913 92.4361 57.9442L92.3565 57.8987C92.135 57.7678 91.9078 57.654 91.6749 57.5459L90.0958 64.5278L90.1015 64.528ZM90.8854 72.3464C90.7661 72.3862 90.6468 72.4204 90.5218 72.4545C90.4707 72.4659 90.4196 72.4773 90.3685 72.4943V72.5057C88.3577 73.0235 86.2218 72.7333 84.4213 71.692C84.3929 71.6749 84.3645 71.6636 84.3361 71.6465C82.8307 70.7474 81.6664 69.3761 81.0245 67.7373L87.5739 66.5822L90.8969 72.3463L90.8854 72.3464ZM85.5062 54.0007C88.3633 53.2268 91.4137 53.6308 93.9811 55.1217C94.0095 55.1388 94.0436 55.1558 94.072 55.1786C96.5884 56.6637 98.4231 59.0821 99.1785 61.9101C99.9454 64.7723 99.5421 67.8223 98.0595 70.3886C96.5827 72.9605 94.1458 74.8384 91.2829 75.6008C88.42 76.369 85.3754 75.965 82.8136 74.4798C82.7795 74.4627 82.7511 74.44 82.7227 74.4229C78.8602 72.1298 76.7414 67.7426 77.3492 63.2872C77.957 58.826 81.1664 55.1672 85.5062 54.0007ZM119.071 143.588C118.179 143.588 117.458 142.865 117.458 141.972C117.458 141.078 118.179 140.35 119.071 140.35H140.445C141.337 140.35 142.059 141.078 142.059 141.972C142.059 142.865 141.337 143.588 140.445 143.588H119.071ZM119.071 138.336C118.202 138.307 117.509 137.596 117.509 136.72C117.509 135.843 118.202 135.132 119.071 135.104H134.873C135.311 135.086 135.737 135.251 136.049 135.559C136.361 135.86 136.537 136.281 136.537 136.72C136.537 137.158 136.361 137.579 136.049 137.88C135.737 138.188 135.311 138.347 134.873 138.336L119.071 138.336ZM105.495 142.142H111.079L111.073 136.549H105.495L105.495 142.142ZM112.692 145.375H103.882C103.45 145.375 103.041 145.204 102.74 144.902C102.433 144.595 102.263 144.185 102.269 143.759V134.933C102.263 134.506 102.433 134.091 102.74 133.789C103.041 133.488 103.45 133.317 103.882 133.317H112.692H112.686C113.578 133.317 114.305 134.04 114.305 134.933V143.759C114.305 144.652 113.578 145.375 112.686 145.375L112.692 145.375ZM119.077 127.933H119.071C118.202 127.911 117.509 127.194 117.509 126.317C117.509 125.447 118.202 124.73 119.071 124.701H140.445C140.883 124.69 141.303 124.849 141.621 125.157C141.934 125.464 142.11 125.879 142.11 126.317C142.11 126.756 141.934 127.177 141.621 127.478C141.303 127.785 140.883 127.95 140.445 127.933L119.077 127.933ZM119.077 122.681L119.071 122.687C118.179 122.687 117.458 121.959 117.458 121.065C117.458 120.172 118.179 119.449 119.071 119.449H134.873C135.765 119.449 136.492 120.172 136.492 121.065C136.492 121.959 135.765 122.687 134.873 122.687L119.077 122.681ZM105.501 126.482H111.084L111.073 120.895H105.495V126.488L105.501 126.482ZM112.698 129.715L103.882 129.72C103.45 129.72 103.041 129.55 102.74 129.248C102.433 128.946 102.263 128.531 102.269 128.104V119.279C102.263 118.852 102.433 118.442 102.74 118.135C103.041 117.833 103.45 117.663 103.882 117.663H112.692H112.686C113.578 117.663 114.305 118.385 114.305 119.279V128.104C114.305 128.998 113.578 129.72 112.686 129.72L112.698 129.715ZM73.0953 126.875C65.9609 126.875 59.8205 131.928 58.4287 138.938C57.0428 145.949 60.7861 152.965 67.3751 155.702C73.97 158.433 81.5701 156.123 85.5345 150.183C89.4994 144.236 88.7212 136.321 83.6772 131.263C80.8711 128.452 77.0657 126.87 73.0953 126.875ZM81.3941 133.55C77.4349 129.584 71.2321 128.975 66.5793 132.087C61.9271 135.206 60.1151 141.18 62.2565 146.359C64.398 151.537 69.8965 154.478 75.3836 153.386C80.8763 152.293 84.8299 147.468 84.8299 141.863C84.8299 138.745 83.5981 135.752 81.3941 133.55ZM76.7363 122.664L75.9468 117.953H70.2551L69.4542 122.727C69.3519 123.353 68.8918 123.859 68.2784 124.024C67.5172 124.229 66.7617 124.485 66.0346 124.787C65.3019 125.088 64.5918 125.441 63.9102 125.834C63.3649 126.147 62.689 126.113 62.1721 125.748L58.2357 122.937L54.2141 126.966L57.0202 130.915C57.4008 131.456 57.4178 132.178 57.0543 132.736C56.6794 133.396 56.3442 134.079 56.0545 134.779C55.7535 135.513 55.4979 136.269 55.2877 137.032C55.123 137.669 54.5834 138.136 53.9358 138.221L49.2325 139.012V144.708L53.9982 145.51C54.623 145.613 55.1286 146.074 55.2876 146.688C55.7023 148.219 56.3101 149.687 57.0996 151.058C57.412 151.605 57.378 152.287 57.0144 152.8L54.214 156.749L58.2356 160.777L62.172 157.966V157.972C62.7116 157.585 63.433 157.568 63.9897 157.932C65.3359 158.7 66.7788 159.298 68.2726 159.696C68.9088 159.867 69.3746 160.407 69.4598 161.056L70.2493 165.768H75.9354L76.7363 160.993C76.8442 160.368 77.2986 159.861 77.9121 159.696C79.4401 159.286 80.9113 158.683 82.2802 157.887C82.8255 157.574 83.5015 157.608 84.0184 157.972L87.9604 160.783L91.982 156.754L89.1759 152.805H89.1703C88.7897 152.265 88.7726 151.542 89.1362 150.99C89.5111 150.33 89.8462 149.642 90.1359 148.942C90.437 148.208 90.6926 147.457 90.9027 146.688C91.0731 146.057 91.6071 145.584 92.2603 145.505L96.9636 144.714V139.012L92.1979 138.21C91.5731 138.107 91.0676 137.647 90.9028 137.032C90.4939 135.501 89.8861 134.028 89.0965 132.656C88.7841 132.11 88.8182 131.433 89.1817 130.915L91.9878 126.966L87.9662 122.937L84.0241 125.748C83.4845 126.135 82.7631 126.152 82.2064 125.788C81.5475 125.413 80.8659 125.077 80.1616 124.787C79.4288 124.479 78.6791 124.223 77.9178 124.019C77.2817 123.848 76.8159 123.313 76.7307 122.659L76.7363 122.664ZM79.0028 116.695L79.7583 121.202C80.3093 121.378 80.8546 121.583 81.3885 121.805C81.9281 122.027 82.4621 122.272 82.9732 122.539L86.6938 119.887H86.6995C87.5686 119.256 88.7558 119.301 89.5738 119.996C89.6249 120.041 89.676 120.087 89.7272 120.138L94.777 125.197C95.5949 126.01 95.7029 127.296 95.0326 128.235L92.3856 131.962C92.6526 132.48 92.8968 133.009 93.1184 133.55C93.3399 134.09 93.5444 134.637 93.7205 135.188L98.2193 135.957V135.951C99.3554 136.144 100.19 137.129 100.19 138.278V145.442C100.19 146.598 99.3554 147.582 98.2193 147.77L93.7205 148.527C93.5444 149.079 93.3399 149.625 93.1184 150.165C93.0729 150.273 93.0275 150.376 92.982 150.484L149.733 150.478C150.307 150.478 150.767 150.012 150.773 149.443V50.9334C150.767 50.3586 150.307 49.8977 149.733 49.892H131.181V51.0585C131.181 51.7015 130.925 52.3104 130.477 52.76C130.028 53.2152 129.415 53.4712 128.778 53.4712H96.707C96.0708 53.4712 95.463 53.2152 95.0142 52.76C94.5598 52.3104 94.3042 51.7016 94.3042 51.0585V49.892H75.7463C75.1783 49.892 74.7125 50.353 74.7125 50.9277V114.721H76.6723C77.8254 114.721 78.8081 115.557 78.9956 116.695L79.0028 116.695ZM93.7886 153.716H149.734C152.091 153.71 154 151.798 154 149.442V50.933C154 48.5716 152.091 46.6654 149.734 46.6597H131.182V44.577C131.176 42.2213 129.273 40.3093 126.916 40.3093H123.315V36.8838C123.309 33.6346 120.679 31.0057 117.436 31H108.046C104.803 31.0057 102.178 33.6346 102.173 36.8838V40.3093H98.5658C96.2141 40.3093 94.3055 42.2213 94.2999 44.577V46.654H75.7478C73.3905 46.6597 71.4876 48.5716 71.4819 50.933V114.72H69.5222C68.3691 114.72 67.3863 115.557 67.1989 116.695L66.432 121.202C65.881 121.378 65.3414 121.583 64.7961 121.805C64.2565 122.027 63.7225 122.272 63.2114 122.539L59.4908 119.887H59.4965C58.5592 119.216 57.2756 119.318 56.4576 120.138L51.4078 125.196C50.5898 126.01 50.4819 127.302 51.1578 128.235L53.8048 131.962C53.5378 132.48 53.2936 133.009 53.0721 133.55C52.8505 134.09 52.646 134.636 52.4699 135.188L47.9711 135.957C46.835 136.144 46 137.129 46 138.284V145.448C46 146.597 46.835 147.582 47.9711 147.775L52.4699 148.532C52.6517 149.084 52.8505 149.63 53.0721 150.171C53.2936 150.711 53.5378 151.241 53.8048 151.758L51.1578 155.486C50.4819 156.419 50.5898 157.705 51.4078 158.518L56.4576 163.577L56.611 163.714C57.4346 164.414 58.6218 164.459 59.4966 163.827L63.2228 161.181C63.7397 161.449 64.2737 161.694 64.8076 161.916C65.3472 162.137 65.8925 162.342 66.4435 162.519L67.2103 167.025V167.031C67.3978 168.163 68.3748 168.994 69.5221 169H76.6736C77.8267 169 78.8095 168.164 78.9969 167.025L79.7524 162.519C80.3034 162.342 80.8487 162.137 81.3883 161.916C81.9279 161.688 82.4562 161.443 82.9731 161.181L86.6936 163.833C87.6309 164.51 88.9146 164.402 89.7269 163.583L94.7767 158.524H94.7824C95.5946 157.71 95.7026 156.424 95.0323 155.486L93.777 153.722L93.7886 153.716ZM86.2679 110.8C85.8305 110.811 85.4045 110.646 85.0921 110.345C84.7796 110.037 84.6035 109.616 84.6035 109.178C84.6035 108.746 84.7796 108.325 85.0921 108.017C85.4045 107.716 85.8305 107.551 86.2679 107.562H139.219C139.657 107.551 140.077 107.716 140.395 108.017C140.708 108.325 140.884 108.746 140.884 109.178C140.884 109.616 140.708 110.037 140.395 110.345C140.077 110.646 139.657 110.811 139.219 110.8H86.2679ZM127.518 61.5562C126.649 61.7553 125.78 61.2148 125.581 60.3442C125.382 59.4735 125.922 58.6086 126.791 58.4095L132.607 57.0439C133.471 56.8447 134.34 57.3853 134.544 58.2502C134.584 58.4436 134.595 58.6428 134.567 58.842L133.885 64.7428C133.783 65.6304 132.988 66.2678 132.102 66.1653C131.216 66.0629 130.579 65.2663 130.682 64.3785L130.801 63.36L120.667 74.3535C120.207 74.8543 119.486 75.0136 118.861 74.7519L106.256 69.4997L93.5155 79.56C92.8168 80.0835 91.8284 79.9526 91.2889 79.2641C90.7492 78.5699 90.8515 77.5799 91.5274 77.0221L105.007 66.37C105.467 66.0058 106.086 65.9261 106.62 66.1481L119.065 71.3376L128.222 61.3911L127.518 61.5562ZM130.17 104.012V71.4472H135.76V104.007L130.17 104.012ZM137.379 107.244H128.551C127.66 107.238 126.944 106.515 126.944 105.622V69.8251C126.944 69.3984 127.114 68.9887 127.415 68.6814C127.716 68.3798 128.125 68.2091 128.557 68.2091H137.379C138.27 68.2091 138.992 68.9318 138.992 69.8252V105.622C138.992 106.515 138.27 107.244 137.379 107.244ZM116.686 104.006V86.0871H122.276L122.281 104.006H116.686ZM123.894 107.238L115.073 107.244C114.181 107.244 113.46 106.515 113.46 105.622V84.4606V84.4663C113.46 83.5729 114.181 82.8446 115.073 82.8446H123.894C124.786 82.8446 125.508 83.5729 125.508 84.4663V105.628V105.622C125.508 106.515 124.786 107.244 123.894 107.244V107.238ZM103.206 104.006V80.4657H108.801L108.796 104.006H103.206ZM110.409 107.244H101.593C100.701 107.244 99.974 106.515 99.974 105.622V78.8494C99.974 77.956 100.701 77.2276 101.593 77.2276H110.409C110.84 77.2276 111.249 77.3984 111.55 77.7056C111.857 78.0072 112.028 78.4169 112.022 78.8494V105.622C112.028 106.055 111.857 106.464 111.55 106.766C111.249 107.073 110.84 107.244 110.409 107.244ZM89.7205 104.006V91.1176H95.3156V104.012L89.7205 104.006ZM96.9287 107.238L88.1072 107.244C87.6812 107.244 87.2722 107.073 86.9655 106.766C86.6644 106.464 86.494 106.055 86.494 105.622V89.4964C86.4997 88.6088 87.2211 87.8861 88.1072 87.8861H96.9287C97.8205 87.8861 98.5419 88.6144 98.5419 89.5021V105.622C98.5476 106.054 98.3772 106.464 98.0705 106.766C97.7694 107.073 97.3604 107.244 96.9287 107.244L96.9287 107.238ZM120.082 41.9255V36.884C120.076 35.4217 118.894 34.2381 117.435 34.2324H108.045C106.585 34.2381 105.404 35.4217 105.398 36.884V41.9255C105.398 42.8189 104.677 43.5416 103.785 43.5416H98.5649C97.9969 43.5473 97.5311 44.0082 97.5311 44.5772V50.2333L127.955 50.239V44.5772C127.949 44.0082 127.489 43.5473 126.915 43.5416H121.701C120.809 43.5416 120.082 42.819 120.082 41.9255Z" fill="white"/>
</svg>
