<svg width="51" height="50" viewBox="0 0 51 50" fill="none" xmlns="http://www.w3.org/2000/svg">
<path d="M37.3533 29.9641C36.7268 29.6469 33.6752 28.1578 33.1049 27.9453C32.5346 27.7422 32.1205 27.6359 31.7049 28.2625C31.2986 28.8734 30.1018 30.2719 29.7361 30.6797C29.3705 31.0875 29.0111 31.1187 28.3939 30.8422C27.7674 30.525 25.7658 29.8734 23.3893 27.7422C21.533 26.0906 20.2971 24.0562 19.9299 23.4297C19.5643 22.8109 19.8893 22.4609 20.1986 22.1516C20.483 21.8672 20.8252 21.4359 21.1424 21.0609C21.4439 20.6859 21.5408 20.4344 21.7611 20.0281C21.9643 19.5891 21.8596 19.2469 21.7049 18.9375C21.5502 18.6281 20.3049 15.5609 19.7846 14.3391C19.2877 13.1266 18.7674 13.2812 18.3846 13.2812C18.0268 13.2484 17.6111 13.2484 17.1971 13.2484C16.783 13.2484 16.1064 13.4031 15.5361 13.9969C14.9658 14.6234 13.3549 16.1203 13.3549 19.1484C13.3549 22.1844 15.5846 25.1219 15.8939 25.5609C16.2111 25.9672 20.2799 32.2172 26.5221 34.9031C28.0111 35.5297 29.1674 35.9047 30.0705 36.2141C31.5596 36.6859 32.9189 36.6203 33.9924 36.4656C35.1799 36.2703 37.6705 34.9594 38.1924 33.4953C38.7221 32.0219 38.7221 30.8016 38.5674 30.525C38.4127 30.2406 38.0064 30.0859 37.3799 29.8094L37.3533 29.9641ZM26.033 45.3125H26.0002C22.3049 45.3125 18.6518 44.3109 15.4611 42.4391L14.7127 41.9922L6.9002 44.0266L9.0002 36.425L8.49551 35.6437C6.43613 32.3641 5.3377 28.5797 5.3377 24.6906C5.3377 13.3469 14.6236 4.09375 26.0486 4.09375C31.583 4.09375 36.7752 6.25 40.6814 10.1562C44.5877 14.0297 46.7439 19.2219 46.7439 24.7234C46.7283 36.0594 37.4502 45.3125 26.0408 45.3125H26.033ZM43.6518 7.18594C38.8986 2.59531 32.6486 0 26.0002 0C12.2877 0 1.12207 11.1172 1.11426 24.7797C1.11426 29.1422 2.25332 33.3984 4.43457 37.1656L0.90332 50L14.1033 46.5578C17.7408 48.5188 21.8346 49.5687 26.0018 49.5766H26.0096C39.7299 49.5766 50.8955 38.4594 50.9033 24.7875C50.9033 18.1719 48.3236 11.9453 43.6205 7.26562L43.6518 7.18594Z" fill="#779220"/>
</svg>
